<svg id="visual" viewBox="0 0 900 600" width="900" height="600" xmlns="http://www.w3.org/2000/svg" xmlns:xlink="http://www.w3.org/1999/xlink" version="1.1"><rect x="0" y="0" width="900" height="600" fill="#1f3a69"></rect><path d="M129 0L128.5 11.2C128 22.3 127 44.7 120.5 66.8C114 89 102 111 93.3 133.2C84.7 155.3 79.3 177.7 75.3 200C71.3 222.3 68.7 244.7 78.3 266.8C88 289 110 311 109 333.2C108 355.3 84 377.7 81.3 400C78.7 422.3 97.3 444.7 103.2 466.8C109 489 102 511 99 533.2C96 555.3 97 577.7 97.5 588.8L98 600L0 600L0 588.8C0 577.7 0 555.3 0 533.2C0 511 0 489 0 466.8C0 444.7 0 422.3 0 400C0 377.7 0 355.3 0 333.2C0 311 0 289 0 266.8C0 244.7 0 222.3 0 200C0 177.7 0 155.3 0 133.2C0 111 0 89 0 66.8C0 44.7 0 22.3 0 11.2L0 0Z" fill="#caf9ff" stroke-linecap="round" stroke-linejoin="miter"></path></svg>