<svg id="visual" viewBox="0 0 960 540" width="960" height="540" xmlns="http://www.w3.org/2000/svg" xmlns:xlink="http://www.w3.org/1999/xlink" version="1.1"><rect x="0" y="0" width="960" height="540" fill="#1f3a69"></rect><path d="M138 0L137.5 10C137 20 136 40 129 60C122 80 109 100 99.5 120C90 140 84 160 79.7 180C75.3 200 72.7 220 83.2 240C93.7 260 117.3 280 116.3 300C115.3 320 89.7 340 86.8 360C84 380 104 400 110.2 420C116.3 440 108.7 460 105.5 480C102.3 500 103.7 520 104.3 530L105 540L0 540L0 530C0 520 0 500 0 480C0 460 0 440 0 420C0 400 0 380 0 360C0 340 0 320 0 300C0 280 0 260 0 240C0 220 0 200 0 180C0 160 0 140 0 120C0 100 0 80 0 60C0 40 0 20 0 10L0 0Z" fill="#caf9ff" stroke-linecap="round" stroke-linejoin="miter"></path></svg>